
        <svg xmlns="http://www.w3.org/2000/svg" xmlns:xlink="http://www.w3.org/1999/xlink" version="1.1" width="3300" height="1170.6052375028528" viewBox="0 0 3300 1170.6052375028528">
			
			<g transform="scale(15) translate(10, 10)">
				<defs id="SvgjsDefs2000"/><g id="SvgjsG2001" featureKey="nameFeature-0" transform="matrix(1.4409223169263958,0,0,1.4409223169263958,-2.7089348078074,-15.504324459928965)" fill="#000"><path d="M9.6 40.2 c-4.36 0 -7.72 -2.44 -7.72 -5.2 c0 -1.28 0.6 -2.12 1.44 -2.12 c0.6 0 1.36 0.4 1.36 1.28 c0 1.24 -1.44 1.36 -1.44 2.36 c0 1.84 3.64 3.2 6.12 3.2 c4.2 0 7.28 -2.24 7.28 -6 c0 -7.72 -14.2 -5.16 -14.2 -14.04 c0 -2.92 2.2 -6.24 7.76 -6.24 c4.36 0 7.72 2.36 7.72 5.12 c0 1.28 -0.6 2.12 -1.44 2.12 c-0.6 0 -1.36 -0.4 -1.36 -1.28 c0 -1.24 1.44 -1.36 1.44 -2.36 c0 -1.84 -3.64 -3.12 -6.12 -3.12 c-3.04 0 -6.48 1.04 -6.48 5.2 c0 6.88 14.44 4.64 14.44 14.04 c0 2.92 -2.44 7.04 -8.8 7.04 z M34.8 21.96 l4.4 0 l0 20.28 c0 5.72 -2.8 8.8 -8.64 8.8 c-4.96 0 -7.16 -3.16 -7.16 -5.76 c0 -1.36 0.8 -1.96 1.52 -1.96 c0.6 0 1.16 0.44 1.16 1.24 c0 1.16 -1.4 1.12 -1.4 2.36 c0 1.16 1.6 3.68 5.72 3.68 c4.96 0 6.4 -3.96 6.4 -7.4 l0 -9 c-0.88 3.44 -3.24 6.04 -6.92 6.04 c-3.44 0 -5.4 -2 -5.4 -5.44 l0 -11.6 c0 -0.44 -0.32 -0.84 -0.84 -0.84 l-1.16 0 c-0.12 0 -0.2 -0.08 -0.2 -0.2 s0.08 -0.2 0.2 -0.2 l4.4 0 l0 11.92 c0 4.52 2.04 5.68 3.72 5.68 c3.8 0 6.2 -4 6.2 -8.64 l0 -7.72 c0 -0.44 -0.32 -0.84 -0.84 -0.84 l-1.16 0 c-0.12 0 -0.2 -0.08 -0.2 -0.2 s0.08 -0.2 0.2 -0.2 z M50.760000000000005 39.6 c0.12 0 0.2 0.08 0.2 0.2 s-0.08 0.2 -0.2 0.2 l-6.4 0 c-0.12 0 -0.2 -0.08 -0.2 -0.2 s0.08 -0.2 0.2 -0.2 l1.16 0 c0.52 0 0.84 -0.4 0.84 -0.84 l0 -26.68 c0 -0.44 -0.32 -0.84 -0.84 -0.84 l-1.16 0 c-0.12 0 -0.2 -0.08 -0.2 -0.2 s0.08 -0.2 0.2 -0.2 l4.4 0 l0 27.92 c0 0.44 0.32 0.84 0.84 0.84 l1.16 0 z M61.04 10.760000000000002 c2.44 0 4.92 1.28 4.92 3.52 c0 1.44 -0.64 2.16 -1.6 2.16 c-0.68 0 -1.36 -0.36 -1.36 -1.32 c0 -1 1.16 -1.4 1.16 -2.24 c0 -0.96 -1.28 -1.68 -2.64 -1.68 c-1.48 0 -3.04 0.88 -3.04 3.16 l0 7.6 l3.88 0 c0.12 0 0.2 0.08 0.2 0.2 s-0.08 0.2 -0.2 0.2 l-3.88 0 l0 16.4 c0 0.44 0.32 0.84 0.84 0.84 l2.24 0 c0.12 0 0.2 0.08 0.2 0.2 s-0.08 0.2 -0.2 0.2 l-7.48 0 c-0.12 0 -0.2 -0.08 -0.2 -0.2 s0.08 -0.2 0.2 -0.2 l1.16 0 c0.52 0 0.84 -0.4 0.84 -0.84 l0 -16.4 l-2 0 c-0.12 0 -0.2 -0.08 -0.2 -0.2 s0.08 -0.2 0.2 -0.2 l2 0 l0 -6.96 c0 -2.96 2.48 -4.24 4.96 -4.24 z M81.4 26.92 c0 1.48 -0.76 2.08 -1.48 2.08 c-0.68 0 -1.32 -0.52 -1.32 -1.32 c0 -1.16 1.44 -1.36 1.44 -2.32 c0 -1.64 -2.36 -3.2 -5.36 -3.2 c-2.88 0 -6.16 2.12 -6.16 8.76 c0 5.48 2.48 8.6 6.4 8.6 c3.6 0 5.36 -2.72 6.04 -4.52 c0.04 -0.12 0.12 -0.16 0.2 -0.16 c0.16 0 0.24 0.12 0.2 0.28 c-0.68 2.04 -2.72 5.08 -6.76 5.08 c-5.6 0 -8.76 -3.84 -8.76 -9.28 c0 -6.64 4.48 -9.24 8.52 -9.24 c4.08 0 7.04 2.12 7.04 5.24 z M105.16 39.6 c0.12 0 0.2 0.08 0.2 0.2 s-0.08 0.2 -0.2 0.2 l-4.4 0 l0 -5.88 c-0.96 3.52 -3.48 6.16 -6.72 6.16 c-3.76 0 -7.76 -2.44 -7.76 -9.32 c0 -6.44 4 -9.28 7.76 -9.28 c3.24 0 5.76 2.68 6.72 6.2 l0 -5.92 l2.4 0 l0 16.8 c0 0.44 0.32 0.84 0.84 0.84 l1.16 0 z M94.72 39.6 c3.12 0 6.04 -3.8 6.04 -8.6 c0 -4.76 -2.92 -8.64 -6.04 -8.64 c-3.32 0 -5.76 2.8 -5.76 8.6 c0 5.84 2.44 8.64 5.76 8.64 z M118.84 21.76 c2.64 0 3.28 1.72 3.28 3.16 c0 1.12 -0.48 2.08 -1.6 2.08 c-0.72 0 -1.36 -0.4 -1.36 -1.32 c0 -0.96 1.16 -1.44 1.16 -2.2 c0 -0.72 -0.6 -1.2 -1.72 -1.2 c-2.68 0 -5.72 3.48 -5.72 10.28 l0 6.2 c0 0.44 0.32 0.84 0.84 0.84 l2.28 0 c0.12 0 0.2 0.08 0.2 0.2 s-0.08 0.2 -0.2 0.2 l-7.52 0 c-0.12 0 -0.2 -0.08 -0.2 -0.2 s0.08 -0.2 0.2 -0.2 l1.16 0 c0.52 0 0.84 -0.4 0.84 -0.84 l0 -15.56 c0 -0.44 -0.32 -0.84 -0.84 -0.84 l-1.16 0 c-0.12 0 -0.2 -0.08 -0.2 -0.2 s0.08 -0.2 0.2 -0.2 l4.4 0 l0 6.52 c1.04 -5 3.92 -6.72 5.96 -6.72 z M140.68 30.759999999999998 c0 0.12 -0.04 0.2 -0.2 0.2 l-13 0 c0 4.6 1.88 8.56 6.4 8.56 c3.52 0 5.4 -2.68 6.04 -4.52 c0.04 -0.12 0.12 -0.16 0.2 -0.16 c0.16 0 0.24 0.12 0.2 0.28 c-0.4 1.28 -2.2 5.08 -6.76 5.08 c-4.72 0 -8.76 -2.88 -8.76 -9.28 c0 -6.12 3.68 -9.24 8.12 -9.24 c4.28 0 7.76 2.96 7.76 9.08 z M127.48 30.560000000000002 l10.6 0 c0 -5.72 -2.12 -8.44 -5.08 -8.44 c-3.04 0 -5.4 2.88 -5.52 8.44 z"/></g>
			</g>
		</svg>
	