
        <svg xmlns="http://www.w3.org/2000/svg" xmlns:xlink="http://www.w3.org/1999/xlink" version="1.1" width="3187.5" 
        height="1158.84039225694" viewBox="0 0 3187.5 1158.84039225694">
			
			<g transform="scale(9.375) translate(10, 10)">
				<defs id="SvgjsDefs1411"><linearGradient id="SvgjsLinearGradient1416"><stop id="SvgjsStop1417" stop-color="#8f5e25" offset="0"></stop><stop id="SvgjsStop1418" stop-color="#fbf4a1" offset="0.5"></stop><stop id="SvgjsStop1419" stop-color="#8f5e25" offset="1"></stop></linearGradient><linearGradient id="SvgjsLinearGradient1420"><stop id="SvgjsStop1421" stop-color="#8f5e25" offset="0"></stop><stop id="SvgjsStop1422" stop-color="#fbf4a1" offset="0.5"></stop><stop id="SvgjsStop1423" stop-color="#8f5e25" offset="1"></stop></linearGradient></defs><g id="SvgjsG1412" featureKey="symbolFeature-0" transform="matrix(1.3368983411779418,0,0,1.3368983411779418,-16.844919608828313,-14.973254791371767)" fill="url(#SvgjsLinearGradient1416)"><path xmlns="http://www.w3.org/2000/svg" d="M49.2,20.5c0-2.5-1-4.8-2.7-6.5s-4-2.7-6.5-2.7c0,0,0,0,0,0c-5,0-9,4-9.2,8.9c-0.6,0.1-1.3,0.2-1.9,0.4  c-4.4,1.4-6.9,5.9-6,10.3c-1.1,0.4-2,1.1-2.6,2.1c-1,1.7-0.9,3.7,0.2,5.2c-3.4,1.3-5.9,4.7-5.9,8.6c0,1.8,0.5,3.5,1.5,5  c-2.1,1.3-3.5,3.6-3.5,6.2c0,3.2,2,5.8,4.9,6.8c-1.7,1.8-2.3,4.5-1.4,6.9c1,2.5,3.4,4.1,6,4.1c0.3,0,0.7,0,1-0.1  c0.1,1.8,0.8,3.5,2,4.8c1.5,1.7,3.5,2.7,5.8,2.9c0.2,0,0.4,0,0.6,0c0.2,0,0.5,0,0.7,0c1.4,3.2,4.5,5.3,8.1,5.3  c4.8,0,8.7-3.8,8.8-8.6c0,0,0,0,0-0.1V20.6C49.2,20.6,49.2,20.6,49.2,20.5C49.2,20.5,49.2,20.5,49.2,20.5z M40.4,86.7  c-2.6,0-4.9-1.5-6.1-3.7c3.1-1.1,5.5-3.9,5.8-7.4c0-0.6-0.4-1-0.9-1.1c-0.6,0-1,0.4-1.1,0.9c-0.3,3.6-3.4,6.2-6.9,6  c-1.7-0.1-3.3-0.9-4.4-2.2c-1.1-1.3-1.7-3-1.5-4.7c0,0,0,0,0,0c0-0.2,0-0.3-0.1-0.5c-0.2-0.5-0.8-0.8-1.3-0.6  c-2.3,0.9-4.9-0.2-5.8-2.5c-0.9-2.3,0.2-4.9,2.5-5.8c0.5-0.2,0.8-0.8,0.6-1.3c-0.2-0.4-0.6-0.6-1-0.6c-0.1,0-0.1,0-0.2,0  c-2.9,0-5.2-2.3-5.2-5.2s2.3-5.2,5.2-5.2c0.6,0,1-0.4,1-1s-0.4-1-1-1c-0.6,0-1.3,0.1-1.9,0.3c-0.9-1.2-1.4-2.7-1.4-4.2  c0-4,3.2-7.2,7.2-7.2s7.2,3.2,7.2,7.2c0,0.6,0.4,1,1,1s1-0.4,1-1c0-5.1-4.1-9.2-9.2-9.2c-0.4,0-0.8,0-1.2,0.1c0,0,0-0.1-0.1-0.1  c-1-0.9-1.2-2.4-0.5-3.6c0.8-1.4,2.6-1.9,4-1c0.5,0.3,1.1,0.1,1.4-0.4c0.3-0.5,0.1-1.1-0.4-1.4c-0.7-0.4-1.4-0.6-2.1-0.6  c-0.4-1.6-0.2-3.3,0.6-4.7c0.8-1.6,2.3-2.8,4-3.4c1.1-0.3,2.2-0.4,3.2-0.2c1.8,0.3,3.4,1.3,4.4,2.8c0.3,0.5,0.9,0.6,1.4,0.2  c0.5-0.3,0.6-0.9,0.2-1.4c-1.3-1.9-3.4-3.2-5.7-3.6c-0.1,0-0.2,0-0.3,0c0.1-3.9,3.3-7,7.2-7c0,0,0,0,0,0c1.9,0,3.7,0.8,5.1,2.1  c1.4,1.4,2.1,3.2,2.1,5.1c0,0,0,0,0,0.1c0,0,0,0.1,0,0.1v59.3C47.2,83.7,44.1,86.7,40.4,86.7z"></path><path xmlns="http://www.w3.org/2000/svg" d="M87.4,58c0-2.6-1.4-4.9-3.5-6.2c1-1.5,1.5-3.2,1.5-5c0-3.9-2.4-7.2-5.9-8.6c1-1.5,1.2-3.6,0.2-5.2c-0.6-1-1.5-1.7-2.6-2.1  c0.9-4.4-1.6-8.9-6-10.3c-0.6-0.2-1.3-0.3-1.9-0.4c-0.1-2.4-1-4.6-2.7-6.3c-1.7-1.7-4-2.7-6.5-2.7c0,0,0,0,0,0  c-5.1,0-9.2,4.1-9.2,9.2c0,0,0,0.1,0,0.1c0,0,0,0,0,0.1v59.4c0,0,0,0,0,0.1c0.1,4.8,4,8.6,8.8,8.6c3.5,0,6.7-2.1,8.1-5.3  c0.2,0,0.4,0,0.7,0c0.2,0,0.4,0,0.6,0c2.3-0.2,4.3-1.2,5.8-2.9c1.2-1.4,1.9-3.1,2-4.8c0.3,0.1,0.7,0.1,1,0.1c0.9,0,1.7-0.2,2.5-0.5  c1.6-0.7,2.8-1.9,3.5-3.5c0.6-1.6,0.6-3.4-0.1-5c-0.3-0.7-0.8-1.4-1.3-2C85.3,63.8,87.4,61.1,87.4,58z M80.1,63.2  c-0.1,0-0.1,0-0.2,0c-0.4,0-0.8,0.2-1,0.6c-0.2,0.5,0,1.1,0.6,1.3c2.3,0.9,3.4,3.5,2.5,5.8c-0.9,2.3-3.5,3.4-5.8,2.5  c-0.5-0.2-1.1,0-1.3,0.6c-0.1,0.2-0.1,0.3-0.1,0.5c0,0,0,0,0,0c0.1,1.7-0.4,3.4-1.5,4.7c-1.1,1.3-2.7,2.1-4.4,2.2  c-3.6,0.3-6.7-2.4-6.9-6c0-0.6-0.5-1-1.1-0.9c-0.6,0-1,0.5-0.9,1.1c0.3,3.5,2.6,6.3,5.8,7.4c-1.1,2.3-3.5,3.7-6.1,3.7  c-3.8,0-6.8-3.1-6.8-6.8V20.6c0,0,0-0.1,0-0.1c0,0,0,0,0-0.1c0-4,3.2-7.2,7.2-7.2c0,0,0,0,0,0c1.9,0,3.7,0.7,5.1,2.1  c1.3,1.3,2.1,3,2.1,4.9c-0.1,0-0.2,0-0.3,0c-2.3,0.4-4.4,1.7-5.7,3.6c-0.3,0.5-0.2,1.1,0.2,1.4c0.5,0.3,1.1,0.2,1.4-0.2  c1-1.5,2.7-2.5,4.4-2.8c1.1-0.2,2.2-0.1,3.2,0.2c1.7,0.6,3.2,1.8,4,3.4c0.8,1.5,1,3.1,0.6,4.7c-0.7,0.1-1.5,0.3-2.1,0.6  c-0.5,0.3-0.6,0.9-0.4,1.4c0.3,0.5,0.9,0.6,1.4,0.4c0.7-0.4,1.5-0.5,2.2-0.3c0.8,0.2,1.4,0.7,1.8,1.3c0.7,1.2,0.5,2.6-0.5,3.6  c0,0,0,0.1-0.1,0.1c-0.4-0.1-0.8-0.1-1.2-0.1c-5.1,0-9.2,4.1-9.2,9.2c0,0.6,0.4,1,1,1s1-0.4,1-1c0-4,3.2-7.2,7.2-7.2  s7.2,3.2,7.2,7.2c0,1.5-0.5,3-1.4,4.2c-0.6-0.2-1.2-0.3-1.9-0.3c-0.6,0-1,0.4-1,1s0.4,1,1,1c2.9,0,5.2,2.3,5.2,5.2  S83,63.2,80.1,63.2z"></path></g><g id="SvgjsG1413" featureKey="nameFeature-0" transform="matrix(1.560781181269578,0,0,1.560781181269578,117.07442632461944,3.8404921928789832)" fill="url(#SvgjsLinearGradient1420)"><path d="M17.36 14.920000000000002 l0.84 0.8 c0.16 0.2 0.24 0.4 0.2 0.68 c-0.08 0.36 -0.24 0.68 -0.48 0.96 c-0.76 0.76 -1.52 1.56 -2.36 2.32 c-0.64 0.6 -1.16 0.56 -1.84 0.04 c-1.16 -0.92 -2.32 -1.76 -3.44 -2.68 c-1.32 -1.08 -2.32 -0.12 -2.56 0.96 c-0.36 1.52 0.12 2.6 1.44 3.44 c2.12 1.4 4.32 2.64 6.36 4.2 c0.52 0.4 1.04 0.84 1.52 1.28 c0.52 0.44 0.76 1.04 0.72 1.76 l0 3.04 c0 1.28 -0.52 2.28 -1.48 3.08 c-1.92 1.56 -3.76 3.2 -5.64 4.8 c-0.52 0.44 -1.08 0.68 -1.76 0.64 c-0.96 -0.04 -1.88 -0.32 -2.64 -0.96 l-3.68 -3.04 c-0.68 -0.56 -0.68 -1.04 -0.08 -1.64 l1.6 -1.68 l0.6 -0.6 c0.72 -0.76 1.36 -0.8 2.12 -0.08 c0.84 0.84 1.8 1.52 2.72 2.24 c0.28 0.28 0.64 0.44 1.04 0.52 c1 0.28 1.8 -0.24 1.96 -1.28 c0.2 -1.2 -0.28 -2.16 -1.24 -2.84 l-8.12 -5.52 c-0.88 -0.6 -1.32 -1.4 -1.28 -2.48 c0.04 -1.12 -0.12 -2.28 0.2 -3.4 c0.28 -1.08 0.84 -1.96 1.76 -2.6 c2.32 -1.56 4.6 -3.2 6.88 -4.8 c0.88 -0.6 1.92 -0.6 2.8 0.04 c1.28 0.92 2.56 1.84 3.84 2.8 z M13.12 27.119999999999997 c-2.32 -1.6 -4.64 -3.24 -7 -4.84 c-0.56 -0.36 -0.8 -0.84 -0.76 -1.52 c0.04 -0.36 0.04 -0.72 0.04 -1.08 c0 -0.64 -0.16 -0.88 -0.64 -0.88 c-0.44 0 -0.6 0.24 -0.6 0.84 l0 1.56 c-0.04 0.8 0.28 1.4 0.92 1.88 c3.8 2.64 6.2 4.32 8.64 5.96 c0.56 0.4 0.88 0.92 0.88 1.64 c-0.04 0.44 -0.04 0.88 -0.04 1.32 c0 0.4 0.2 0.64 0.6 0.64 c0.44 0 0.64 -0.24 0.64 -0.64 l0 -0.88 c0.2 -1.56 -0.52 -2.64 -1.8 -3.4 c-0.28 -0.16 -0.56 -0.4 -0.88 -0.6 z M7.92 37.48 c0.4 0.28 0.96 0 0.96 -0.52 c0 -0.2 -0.12 -0.4 -0.32 -0.52 c-0.96 -0.8 -1.96 -1.56 -2.96 -2.32 c-0.36 -0.24 -0.68 -0.2 -0.92 0.08 c-0.24 0.32 -0.16 0.68 0.12 0.88 z M15.44 16.88 c0.08 -0.24 0 -0.44 -0.2 -0.6 c-0.92 -0.72 -1.84 -1.48 -2.8 -2.2 c-0.32 -0.24 -0.72 -0.16 -0.96 0.16 c-0.24 0.36 -0.08 0.6 0.2 0.84 c0.88 0.68 1.72 1.36 2.6 2 c0.12 0.12 0.28 0.24 0.4 0.24 c0.4 -0.04 0.6 -0.16 0.76 -0.44 z M39.16 35.519999999999996 c1.48 0.96 1.64 2.12 0.84 3.68 c-1.12 2.2 -2.36 4.36 -3.52 6.52 c-0.24 0.4 -0.44 0.84 -0.64 1.28 c-0.48 1.08 -1.36 1.52 -2.48 1.52 c-1.92 -0.04 -3.84 -0.12 -5.76 0.12 c-0.8 0.08 -1.56 0.2 -2.32 0.48 c-0.56 0.24 -1.08 0.56 -1.4 1.08 c-0.2 0.28 -0.36 0.64 -0.76 0.56 c-0.44 -0.12 -0.72 -0.44 -0.76 -0.92 c-0.16 -1.08 -0.4 -2.2 -0.32 -3.32 c0.04 -0.88 0.32 -1.72 0.96 -2.4 c0.68 -0.76 1.64 -1 2.6 -1.12 c1.32 -0.12 2.6 -0.08 3.88 0.04 c1.52 0.12 3 0.12 4.52 0.16 c0.68 0 1.36 -0.16 1.96 -0.56 c1 -0.64 1.04 -1.56 0.12 -2.28 l-2.72 -2.04 l-0.52 -0.4 c-0.32 -0.16 -0.44 -0.68 -0.76 -0.6 c-0.36 0.08 -0.64 0.4 -0.96 0.6 l-2.56 1.84 c-1 0.72 -1.88 0.72 -2.88 0.04 c-0.72 -0.52 -1.44 -1.04 -2.16 -1.52 c-0.88 -0.52 -1.2 -1.32 -1.2 -2.32 l0 -8.84 c0.04 -0.64 -0.16 -1.04 -0.72 -1.28 c-0.44 -0.2 -0.88 -0.44 -1.28 -0.72 c-0.64 -0.4 -0.76 -1 -0.2 -1.52 c0.92 -0.88 1.88 -1.72 2.96 -2.44 c0.64 -0.4 1.44 -0.32 2.08 0.12 c0.64 0.4 1.28 0.84 1.84 1.32 c0.48 0.36 0.68 0.88 0.68 1.48 c-0.04 3.08 -0.04 6.2 -0.04 9.28 c0 0.68 0.2 1.32 0.6 1.88 c0.6 0.8 1.44 1.12 2.24 0.88 c1 -0.28 1.56 -0.96 1.56 -1.96 c0.04 -2.44 0.04 -4.84 0 -7.24 c0 -0.6 -0.2 -1.08 -0.8 -1.36 c-0.4 -0.16 -0.76 -0.4 -1.12 -0.6 c-0.64 -0.4 -0.8 -1.04 -0.24 -1.52 c0.92 -0.88 1.92 -1.72 2.96 -2.44 c0.68 -0.52 1.48 -0.32 2.16 0.12 s1.32 0.96 1.96 1.44 c0.44 0.32 0.44 0.76 0.44 1.24 l0.04 9.32 c-0.04 0.72 0.24 1.28 0.76 1.72 c0.32 0.24 0.64 0.48 0.96 0.68 z M27.76 38.4 c0.28 -0.32 0.2 -0.64 -0.16 -0.92 l-1.28 -0.96 c-0.28 -0.28 -0.48 -0.56 -0.48 -1 l0.04 -8.36 c0 -1.24 -0.32 -2.36 -1.28 -3.16 l-1.28 -1.08 c-0.28 -0.24 -0.6 -0.24 -0.88 0 c-0.28 0.32 -0.16 0.6 0.12 0.84 c0.44 0.4 0.88 0.84 1.36 1.2 c0.6 0.44 0.84 1.04 0.84 1.76 c0 2.32 -0.04 4.6 -0.08 6.92 c0 2.84 -0.32 2.96 2.24 4.72 c0.28 0.2 0.6 0.4 0.84 0.04 z M37.480000000000004 38.08 c0.28 -0.36 0.12 -0.68 -0.2 -0.92 l-1.2 -0.92 c-0.36 -0.32 -0.56 -0.68 -0.56 -1.2 c0.08 -2.84 0.08 -5.76 0 -8.6 c0 -0.96 -0.24 -1.8 -0.96 -2.48 c-0.52 -0.48 -1.08 -0.92 -1.6 -1.36 c-0.28 -0.24 -0.6 -0.24 -0.84 0.08 c-0.24 0.28 -0.12 0.56 0.12 0.76 c0.44 0.4 0.84 0.8 1.32 1.16 c0.64 0.48 0.92 1.08 0.92 1.84 c-0.04 2.28 -0.08 4.52 -0.08 6.76 c0 2.96 -0.4 3.04 2.24 4.84 c0.28 0.2 0.6 0.44 0.84 0.04 z M35.92 45.72 c0.2 -0.24 0.2 -0.52 0 -0.76 c-0.24 -0.24 -0.48 -0.28 -0.76 -0.04 c-0.28 0.28 -0.68 0.32 -1.04 0.32 c-0.48 0 -1 -0.04 -1.52 -0.04 l-6.84 0 c-1.12 0 -2 0.48 -2.24 1.2 c-0.12 0.28 -0.12 0.56 0.2 0.72 s0.6 0.08 0.76 -0.2 c0.28 -0.56 0.84 -0.64 1.4 -0.64 c1.4 0.04 2.76 0 4.28 0 c0.88 0 1.8 -0.04 2.72 0 c0.64 0 1.28 0.04 1.92 -0.04 c0.44 -0.04 0.8 -0.16 1.12 -0.52 z M45.519999999999996 39.8 l-2.56 -2.24 c-0.4 -0.36 -0.52 -0.88 -0.52 -1.44 l0 -14.96 c0 -0.8 -0.32 -1.36 -0.96 -1.8 c-0.44 -0.28 -0.88 -0.6 -1.32 -0.92 c-0.68 -0.48 -0.76 -0.96 -0.32 -1.64 c0.32 -0.48 0.72 -0.8 2.16 -2.08 c0.84 -0.72 1.8 -0.84 2.68 -0.16 c0.96 0.72 1.88 1.52 2.8 2.32 c0.36 0.28 0.48 0.68 0.48 1.12 c0 5.12 0.04 10.16 -0.04 15.32 c0 0.8 0.24 1.44 0.92 1.84 c0.36 0.2 0.72 0.48 1.04 0.76 c0.64 0.48 0.76 1 0.28 1.68 c-0.56 0.88 -1.6 1.8 -2.6 2.52 c-0.72 0.56 -1.52 0.12 -2.04 -0.32 z M43.92 18.24 c0.68 0.48 0.96 1.12 0.96 2 c-0.04 4.8 -0.04 9.64 -0.04 14.48 c0 0.92 0.2 1.76 1.12 2.24 c0.48 0.28 0.92 0.68 1.36 1.04 c0.28 0.2 0.56 0.4 0.84 0 c0.28 -0.36 0.16 -0.68 -0.2 -0.92 l-1.28 -0.88 c-0.52 -0.36 -0.72 -0.84 -0.72 -1.52 l0 -14.88 c0 -0.68 -0.12 -1.32 -0.64 -1.8 c-0.64 -0.6 -1.32 -1.12 -1.96 -1.68 c-0.32 -0.24 -0.64 -0.2 -0.88 0.08 s-0.12 0.56 0.16 0.8 c0.4 0.32 0.84 0.72 1.28 1.04 z M51.32 26.560000000000002 c-1.12 -0.68 -1.12 -1.36 0 -2.08 l1.88 -1.64 c0 -0.6 0.04 -0.76 0.04 -0.76 c0 -0.92 0.32 -2.04 1.08 -2.56 l6.92 -4.92 c0.64 -0.44 1.52 -0.44 2.08 0.12 l3.04 2.84 s0.88 0.76 0.28 1.44 c-0.28 0.32 -0.68 0.68 -1.32 1.16 l-0.96 0.64 c-0.76 0.52 -1.4 0.52 -2 -0.12 l-1.8 -1.88 c-0.28 -0.36 -0.72 -0.64 -1.2 -0.56 c-0.52 0.08 -0.8 0.64 -0.84 1.2 l0 4.2 l1.84 1.48 c1.12 0.76 1.12 1.4 0 2.08 l-1.88 1.04 l0 5.52 c0.08 0.64 0.44 1.08 0.8 1.32 c0.44 0.32 1 0.48 1.44 0.84 c0.68 0.48 0.96 0.84 0.44 1.48 c-0.36 0.48 -1.04 1.2 -1.56 1.72 c-1.44 1.4 -1.88 1.32 -3.6 0.08 l-1.92 -1.68 s-0.88 -0.76 -0.84 -2.28 l0 -7.08 c-0.04 -0.4 -0.2 -0.52 -0.2 -0.56 z M55.4 21.68 l0 12.72 c0 0.64 0.12 1.24 0.72 1.68 l1.72 1.28 c0.28 0.2 0.6 0.4 0.88 0.04 c0.28 -0.4 0.08 -0.72 -0.28 -0.96 c-0.44 -0.32 -0.88 -0.68 -1.36 -1 c-0.4 -0.28 -0.6 -0.64 -0.56 -1.2 l0 -12.72 z M61.64 16.6 c-0.12 0.24 -0.16 0.48 0.04 0.64 l2.08 2.04 c0.16 0.16 0.4 0.16 0.6 0 c0.16 -0.08 0.24 -0.24 0.28 -0.48 l-0.08 -0.16 c-0.72 -0.76 -1.44 -1.56 -2.28 -2.2 c-0.16 -0.16 -0.48 -0.08 -0.64 0.16 z M65.36 35.2 c-0.32 -0.24 -0.44 -0.6 -0.4 -1 c0.2 -2.24 0.08 -4.52 0.08 -6.76 c0 -0.88 0.36 -1.52 1.04 -1.96 c2.52 -1.72 5.12 -3.4 7.68 -5.08 c0.64 -0.4 1.4 -0.48 2.04 0 c1.16 0.96 2.52 1.68 3.68 2.64 c0.6 0.52 0.68 0.92 0.2 1.6 c-0.36 0.52 -0.84 0.88 -1.4 1.2 l-1.28 0.84 c-0.72 0.44 -1.36 0.48 -2 -0.08 c-0.68 -0.6 -1.44 -1.16 -2 -1.96 c-0.32 -0.44 -1.16 -0.68 -1.72 -0.52 s-0.92 0.64 -0.96 1.32 c-0.04 0.52 0 1.04 0 1.56 c0.16 2.44 0.08 4.88 0.12 7.36 c0 0.44 0.08 0.88 0.52 1.12 c0.48 0.2 0.92 0.08 1.36 -0.24 c0.76 -0.56 1.48 -1.2 2.16 -1.88 c0.88 -0.76 1.52 -0.8 2.4 -0.08 c0.56 0.4 1.12 0.76 1.6 1.24 c0.76 0.8 0.76 1.44 -0.04 2.16 c-1.16 1.04 -2.32 2.08 -3.52 3.08 c-0.92 0.76 -2.04 0.56 -2.96 0 c-2.24 -1.48 -4.4 -3.04 -6.6 -4.56 z M67.75999999999999 26.439999999999998 c-0.44 0.04 -0.56 0.36 -0.52 0.72 l0 6.68 c0 0.72 0.2 1.28 0.8 1.64 c0.28 0.2 0.56 0.28 0.8 -0.04 c0.2 -0.28 0.2 -0.56 -0.08 -0.8 c-0.44 -0.28 -0.44 -0.68 -0.44 -1.12 l0 -6.36 c0 -0.4 -0.12 -0.72 -0.56 -0.72 z M71.75999999999999 37.68 c-0.08 0.28 0.04 0.48 0.32 0.6 c0.16 0.08 0.36 0.12 0.56 0.12 c0.6 0.04 1.08 -0.28 1.48 -0.64 l2.28 -2.12 c0.28 -0.24 0.48 -0.52 0.2 -0.84 c-0.32 -0.36 -0.64 -0.28 -0.92 0.04 l-2.08 1.92 c-0.36 0.32 -0.68 0.68 -1.28 0.48 c-0.28 -0.08 -0.48 0.16 -0.56 0.44 z M73.96 22.08 c-0.2 0.24 -0.2 0.52 0 0.72 c0.72 0.64 1.44 1.32 2.2 1.96 c0.16 0.16 0.4 0.12 0.6 0 c0.2 -0.08 0.28 -0.24 0.28 -0.52 c-0.04 -0.04 -0.04 -0.16 -0.12 -0.24 c-0.76 -0.68 -1.52 -1.4 -2.28 -2.04 c-0.24 -0.2 -0.52 -0.08 -0.68 0.12 z M82.04 35.8 c0 -2.68 0.04 -5.36 0 -8.08 c-0.04 -0.88 0.32 -1.56 1 -2 c2.52 -1.72 5.08 -3.4 7.64 -5.08 c0.72 -0.48 1.48 -0.4 2.16 0.12 l2.88 2.16 c0.52 0.36 0.76 0.88 0.76 1.52 l0 9.32 c0 0.52 0.2 0.84 0.6 1.08 c0.52 0.24 1 0.56 1.48 0.84 c0.56 0.32 0.68 0.76 0.28 1.28 c-0.76 0.96 -1.56 1.84 -2.48 2.68 c-0.6 0.52 -1.56 0.4 -2.32 -0.16 c-0.92 -0.68 -1.84 -1.36 -2.72 -2.08 c-0.24 -0.2 -0.4 -0.2 -0.64 0 l-2.32 2 c-0.96 0.84 -1.8 0.84 -2.84 0.04 l-2.64 -1.96 c-0.6 -0.4 -0.84 -0.96 -0.84 -1.68 z M87.92 24.36 c-0.68 0.32 -0.76 1 -0.76 1.64 c0.08 2.52 0.04 5.04 0.04 7.56 c0 0.4 0.08 0.8 0.4 1.12 c0.52 0.6 1.2 1 1.92 1.32 c0.2 0.12 0.44 0.04 0.6 -0.08 c0.72 -0.44 1.32 -1.04 1.32 -2 c0.04 -1.12 0 -2.24 0.04 -6.04 c0.16 -1.52 -0.6 -2.44 -1.72 -3.24 c-0.56 -0.44 -1.2 -0.6 -1.84 -0.28 z M91.16 22.24 c-0.28 0.28 -0.16 0.56 0.12 0.84 c0.44 0.36 0.84 0.76 1.32 1.12 c0.64 0.48 0.88 1.12 0.88 1.88 c0 2.28 -0.08 4.52 -0.08 6.8 c0 2.88 -0.36 2.96 2.28 4.8 c0.24 0.2 0.52 0.4 0.8 0.04 c0.24 -0.36 0.2 -0.68 -0.16 -0.96 l-1.24 -0.92 c-0.32 -0.28 -0.56 -0.6 -0.56 -1.08 c0.04 -1.48 0.04 -2.92 0.04 -8.76 c0 -0.96 -0.32 -1.84 -1.04 -2.48 c-0.48 -0.48 -1 -0.88 -1.52 -1.28 c-0.28 -0.24 -0.6 -0.28 -0.84 0 z M84.32 27.36 l-0.08 7.92 c0 0.4 0.16 0.8 0.4 1.16 c0.48 0.68 1.2 1.12 1.84 1.6 c0.28 0.2 0.6 0.08 0.8 -0.2 s0.08 -0.52 -0.2 -0.72 c-0.32 -0.24 -0.6 -0.56 -0.96 -0.76 c-0.64 -0.4 -0.8 -0.92 -0.8 -1.64 c0.08 -2.16 0.08 -4.36 0.08 -6.52 c0 -0.68 0 -1.36 0.56 -1.88 c0.16 -0.16 0.16 -0.4 0 -0.6 c-0.12 -0.2 -0.24 -0.28 -0.48 -0.28 c-0.16 0 -0.28 0.08 -0.4 0.24 c-0.48 0.44 -0.76 1 -0.76 1.68 z M114.52 23.36 c0.64 0.56 0.68 1 0.2 1.72 c-0.36 0.52 -0.88 0.88 -1.4 1.24 l-1 0.68 c-0.72 0.48 -1.36 0.48 -2 -0.12 c-0.6 -0.64 -1.28 -1.2 -1.8 -1.92 c-0.24 -0.32 -0.68 -0.64 -1.2 -0.52 c-0.48 0.08 -0.6 0.52 -0.68 0.92 c-0.2 0.76 -0.08 1.52 -0.08 2.28 c-0.04 0.68 0 1.36 0 5.68 c0 0.68 0.2 1.28 0.84 1.68 c0.4 0.24 0.8 0.56 1.2 0.88 c0.56 0.44 0.68 0.92 0.32 1.56 c-0.32 0.56 -0.84 0.96 -2.04 2.08 c-0.8 0.8 -1.72 0.88 -2.64 0.16 c-0.92 -0.76 -1.8 -1.56 -2.72 -2.36 c-0.32 -0.28 -0.44 -0.64 -0.4 -1.04 c0.12 -2.8 0.04 -5.6 0.04 -8.4 c0 -0.92 0.36 -1.64 1.12 -2.2 l6.92 -4.88 c0.68 -0.48 1.52 -0.44 2.12 0.08 c1 0.92 2.2 1.56 3.2 2.48 z M106.44 37.4 c0.24 -0.28 0.08 -0.52 -0.16 -0.72 l-1.12 -0.92 c-0.48 -0.32 -0.64 -0.8 -0.6 -1.36 c0.04 -2.32 0.04 -4.64 0.04 -6.96 c0.04 -0.4 -0.04 -0.76 -0.52 -0.76 s-0.56 0.36 -0.56 0.76 l-0.08 6.64 c-0.24 1.8 0.96 2.64 2.2 3.48 c0.28 0.2 0.6 0.16 0.8 -0.16 z M112.67999999999999 25.119999999999997 c0.28 -0.32 0.08 -0.56 -0.2 -0.8 l-1.92 -1.68 c-0.16 -0.12 -0.32 -0.24 -0.52 -0.2 c-0.28 0 -0.44 0.12 -0.52 0.32 c-0.12 0.24 -0.04 0.44 0.16 0.6 c0.68 0.6 1.4 1.24 2.12 1.8 c0.28 0.28 0.64 0.32 0.88 -0.04 z M115.96000000000001 34.8 c-0.4 -0.28 -0.44 -0.72 -0.4 -1.16 c0.12 -2.32 0.08 -4.6 0.08 -6.88 c0 -0.76 0.4 -1.28 0.96 -1.68 c2.36 -1.68 4.76 -3.32 7.16 -4.96 c0.68 -0.48 1.76 -0.44 2.36 0.08 c0.96 0.92 2.12 1.68 3.12 2.56 c0.44 0.4 0.68 0.96 0.76 1.52 c0.08 0.44 -0.16 0.84 -0.52 1.16 c-2.64 2.2 -5.36 4.32 -8.24 6.2 c-0.8 0.64 -0.64 1.52 -0.56 2.52 c0.12 0.96 0.88 1.28 1.68 0.72 c0.76 -0.6 1.44 -1.24 2.12 -1.88 c0.8 -0.8 1.4 -0.8 2.28 -0.12 l1.24 0.96 c0.96 0.84 1 1.64 0.08 2.52 c-1 0.96 -2 1.92 -3.04 2.84 c-0.84 0.72 -1.96 0.8 -3.04 0.04 c-2.04 -1.44 -4.04 -2.96 -6.04 -4.44 z M120.56 25.32 c0.04 2.48 0.04 2.8 0.12 3.16 c0.16 0.68 0.76 1.12 1.44 1 c1.04 -0.2 1.84 -0.8 2.4 -1.72 c0.32 -0.56 0.32 -1.2 -0.08 -1.68 c-0.44 -0.52 -0.8 -1.08 -1.24 -1.6 c-0.56 -0.6 -1.12 -0.92 -1.72 -0.72 c-0.56 0.2 -0.92 0.76 -0.92 1.56 z M118.16 26.08 c-0.48 0.04 -0.56 0.36 -0.56 0.76 l0 6.4 c0 0.4 0.08 0.76 0.6 0.76 s0.52 -0.4 0.52 -0.8 c0 -2.12 -0.04 -4.24 0 -6.36 c0 -0.4 -0.08 -0.76 -0.56 -0.76 z M124.08 21.48 c-0.28 0.2 -0.32 0.52 -0.08 0.8 l2.56 2.88 c0.16 0.16 0.36 0.2 0.56 0.08 c0.24 -0.12 0.32 -0.28 0.36 -0.52 c-0.04 -0.16 -0.08 -0.28 -0.2 -0.44 l-2.4 -2.72 c-0.24 -0.28 -0.56 -0.32 -0.8 -0.08 z M123.4 36.36 c-0.28 0.24 -0.52 0.52 -0.2 0.88 s0.64 0.24 0.96 -0.04 c0.8 -0.72 1.64 -1.44 2.44 -2.2 c0.16 -0.12 0.32 -0.24 0.32 -0.4 c0 -0.28 -0.16 -0.44 -0.32 -0.56 c-0.28 -0.12 -0.48 -0.04 -0.72 0.16 z"></path></g>
			</g>
		</svg>
	